<svg width="600" height="400" viewBox="0 0 600 400" fill="none" xmlns="http://www.w3.org/2000/svg">
  <!-- Background Elements -->
  <rect width="600" height="400" rx="12" fill="#F7F9FC"/>
  <circle cx="500" cy="70" r="50" fill="#6A67CE" opacity="0.1"/>
  <circle cx="100" cy="350" r="40" fill="#3BCEAC" opacity="0.1"/>
  
  <!-- Virtual Conference Screen -->
  <rect x="150" y="100" width="300" height="200" rx="8" fill="white" stroke="#3BCEAC" stroke-width="2"/>
  
  <!-- Screen Header -->
  <rect x="150" y="100" width="300" height="40" rx="8" fill="#3BCEAC"/>
  <circle cx="175" cy="120" r="8" fill="white"/>
  <circle cx="205" cy="120" r="8" fill="white"/>
  <circle cx="235" cy="120" r="8" fill="white"/>
  <text x="280" y="128" font-family="Arial" font-size="14" font-weight="bold" fill="white">LIVE SESSION</text>
  
  <!-- Video Grid -->
  <rect x="160" y="150" width="135" height="70" rx="4" fill="#F0F0F0"/>
  <rect x="305" y="150" width="135" height="70" rx="4" fill="#F0F0F0"/>
  <rect x="160" y="230" width="135" height="60" rx="4" fill="#F0F0F0"/>
  <rect x="305" y="230" width="135" height="60" rx="4" fill="#F0F0F0"/>
  
  <!-- Person Silhouettes -->
  <circle cx="227" cy="170" r="20" fill="#6A67CE" opacity="0.7"/>
  <rect x="207" y="190" width="40" height="20" rx="10" fill="#6A67CE" opacity="0.7"/>
  
  <circle cx="373" cy="170" r="20" fill="#3BCEAC" opacity="0.7"/>
  <rect x="353" y="190" width="40" height="20" rx="10" fill="#3BCEAC" opacity="0.7"/>
  
  <circle cx="227" cy="245" r="15" fill="#3BCEAC" opacity="0.7"/>
  <rect x="212" y="260" width="30" height="15" rx="7.5" fill="#3BCEAC" opacity="0.7"/>
  
  <circle cx="373" cy="245" r="15" fill="#6A67CE" opacity="0.7"/>
  <rect x="358" y="260" width="30" height="15" rx="7.5" fill="#6A67CE" opacity="0.7"/>
  
  <!-- Main Presenter -->
  <circle cx="300" cy="310" r="30" fill="#6A67CE"/>
  <rect x="270" y="340" width="60" height="30" rx="15" fill="#6A67CE"/>
  <text x="300" y="315" font-family="Arial" font-size="8" font-weight="bold" fill="white" text-anchor="middle">SPEAKER</text>
  
  <!-- Chat/Info Panel -->
  <rect x="470" y="100" width="80" height="200" rx="8" fill="white" stroke="#6A67CE" stroke-width="2"/>
  <rect x="470" y="100" width="80" height="30" rx="8" fill="#6A67CE"/>
  <text x="510" y="120" font-family="Arial" font-size="10" font-weight="bold" fill="white" text-anchor="middle">CHAT</text>
  
  <!-- Chat Lines -->
  <rect x="480" y="140" width="60" height="8" rx="4" fill="#F0F0F0"/>
  <rect x="480" y="155" width="45" height="8" rx="4" fill="#F0F0F0"/>
  <rect x="480" y="170" width="55" height="8" rx="4" fill="#F0F0F0"/>
  <rect x="480" y="185" width="40" height="8" rx="4" fill="#F0F0F0"/>
  <rect x="480" y="200" width="60" height="8" rx="4" fill="#F0F0F0"/>
  
  <!-- Participants Panel -->
  <rect x="50" y="100" width="80" height="200" rx="8" fill="white" stroke="#3BCEAC" stroke-width="2"/>
  <rect x="50" y="100" width="80" height="30" rx="8" fill="#3BCEAC"/>
  <text x="90" y="120" font-family="Arial" font-size="9" font-weight="bold" fill="white" text-anchor="middle">PARTICIPANTS</text>
  
  <!-- Participant Avatars -->
  <circle cx="75" cy="150" r="10" fill="#6A67CE" opacity="0.8"/>
  <rect x="95" y="145" width="25" height="8" rx="4" fill="#F0F0F0"/>
  
  <circle cx="75" cy="180" r="10" fill="#3BCEAC" opacity="0.8"/>
  <rect x="95" y="175" width="25" height="8" rx="4" fill="#F0F0F0"/>
  
  <circle cx="75" cy="210" r="10" fill="#6A67CE" opacity="0.8"/>
  <rect x="95" y="205" width="25" height="8" rx="4" fill="#F0F0F0"/>
  
  <circle cx="75" cy="240" r="10" fill="#3BCEAC" opacity="0.8"/>
  <rect x="95" y="235" width="25" height="8" rx="4" fill="#F0F0F0"/>
  
  <circle cx="75" cy="270" r="10" fill="#6A67CE" opacity="0.8"/>
  <rect x="95" y="265" width="25" height="8" rx="4" fill="#F0F0F0"/>
  
  <!-- Decorative Elements -->
  <path d="M150 340 Q 175 330 200 345 Q 225 360 250 340 Q 275 320 300 345 Q 325 370 350 345 Q 375 320 400, 340 Q 425 360 450 340" stroke="#3BCEAC" stroke-width="3" fill="none"/>
  
  <!-- Microbe Decorative Elements -->
  <circle cx="500" cy="270" r="15" fill="#3BCEAC" opacity="0.6"/>
  <circle cx="520" cy="285" r="10" fill="#3BCEAC" opacity="0.4"/>
  <circle cx="485" cy="290" r="8" fill="#3BCEAC" opacity="0.3"/>
  
  <circle cx="100" cy="70" r="12" fill="#6A67CE" opacity="0.6"/>
  <circle cx="80" cy="55" r="8" fill="#6A67CE" opacity="0.4"/>
  <circle cx="115" cy="50" r="6" fill="#6A67CE" opacity="0.3"/>
</svg> 